<mxfile host="app.diagrams.net" modified="2024-06-22T02:08:00.687Z" agent="Mozilla/5.0 (Windows NT 10.0; Win64; x64) AppleWebKit/537.36 (KHTML, like Gecko) Chrome/124.0.0.0 Safari/537.36 OPR/110.0.0.0" etag="TJpx4ElDY5nZ9PMqQNCk" version="24.6.1" type="github">
  <diagram id="R2lEEEUBdFMjLlhIrx00" name="Page-1">
    <mxGraphModel dx="1380" dy="757" grid="1" gridSize="10" guides="1" tooltips="1" connect="1" arrows="1" fold="1" page="1" pageScale="1" pageWidth="850" pageHeight="1100" math="0" shadow="0" extFonts="Permanent Marker^https://fonts.googleapis.com/css?family=Permanent+Marker">
      <root>
        <mxCell id="0" />
        <mxCell id="1" parent="0" />
        <mxCell id="hbzrtGQ2m-DsfqGgio28-48" value="" style="edgeStyle=orthogonalEdgeStyle;rounded=0;orthogonalLoop=1;jettySize=auto;html=1;endArrow=none;endFill=0;exitX=0.5;exitY=1;exitDx=0;exitDy=0;" edge="1" parent="1" source="hbzrtGQ2m-DsfqGgio28-64" target="hbzrtGQ2m-DsfqGgio28-47">
          <mxGeometry relative="1" as="geometry">
            <mxPoint x="610" y="400" as="sourcePoint" />
          </mxGeometry>
        </mxCell>
        <mxCell id="hbzrtGQ2m-DsfqGgio28-50" value="1..1" style="edgeLabel;html=1;align=center;verticalAlign=middle;resizable=0;points=[];" vertex="1" connectable="0" parent="hbzrtGQ2m-DsfqGgio28-48">
          <mxGeometry x="-0.375" y="-1" relative="1" as="geometry">
            <mxPoint as="offset" />
          </mxGeometry>
        </mxCell>
        <mxCell id="hbzrtGQ2m-DsfqGgio28-53" value="" style="edgeStyle=orthogonalEdgeStyle;rounded=0;orthogonalLoop=1;jettySize=auto;html=1;endArrow=none;endFill=0;" edge="1" parent="1" target="hbzrtGQ2m-DsfqGgio28-52">
          <mxGeometry relative="1" as="geometry">
            <mxPoint x="240" y="160" as="sourcePoint" />
          </mxGeometry>
        </mxCell>
        <mxCell id="hbzrtGQ2m-DsfqGgio28-55" value="1..N" style="edgeLabel;html=1;align=center;verticalAlign=middle;resizable=0;points=[];" vertex="1" connectable="0" parent="hbzrtGQ2m-DsfqGgio28-53">
          <mxGeometry x="-0.425" y="1" relative="1" as="geometry">
            <mxPoint as="offset" />
          </mxGeometry>
        </mxCell>
        <mxCell id="hbzrtGQ2m-DsfqGgio28-7" value="&lt;u&gt;DNI&lt;/u&gt;" style="ellipse;whiteSpace=wrap;html=1;" vertex="1" parent="1">
          <mxGeometry x="40" y="100" width="70" height="30" as="geometry" />
        </mxCell>
        <mxCell id="hbzrtGQ2m-DsfqGgio28-8" value="Nombre" style="ellipse;whiteSpace=wrap;html=1;" vertex="1" parent="1">
          <mxGeometry x="40" y="140" width="70" height="30" as="geometry" />
        </mxCell>
        <mxCell id="hbzrtGQ2m-DsfqGgio28-9" value="Telefono" style="ellipse;whiteSpace=wrap;html=1;" vertex="1" parent="1">
          <mxGeometry x="40" y="180" width="70" height="30" as="geometry" />
        </mxCell>
        <mxCell id="hbzrtGQ2m-DsfqGgio28-10" value="Direccion" style="ellipse;whiteSpace=wrap;html=1;" vertex="1" parent="1">
          <mxGeometry x="40" y="220" width="70" height="30" as="geometry" />
        </mxCell>
        <mxCell id="hbzrtGQ2m-DsfqGgio28-12" value="&lt;u&gt;Código&lt;/u&gt;" style="ellipse;whiteSpace=wrap;html=1;" vertex="1" parent="1">
          <mxGeometry x="705" y="280" width="70" height="30" as="geometry" />
        </mxCell>
        <mxCell id="hbzrtGQ2m-DsfqGgio28-13" value="Descripcion" style="ellipse;whiteSpace=wrap;html=1;" vertex="1" parent="1">
          <mxGeometry x="705" y="330" width="70" height="30" as="geometry" />
        </mxCell>
        <mxCell id="hbzrtGQ2m-DsfqGgio28-14" value="Destinatario" style="ellipse;whiteSpace=wrap;html=1;" vertex="1" parent="1">
          <mxGeometry x="705" y="390" width="80" height="30" as="geometry" />
        </mxCell>
        <mxCell id="hbzrtGQ2m-DsfqGgio28-15" value="Dirección&lt;div&gt;Destinatario&lt;/div&gt;" style="ellipse;whiteSpace=wrap;html=1;" vertex="1" parent="1">
          <mxGeometry x="700" y="440" width="90" height="30" as="geometry" />
        </mxCell>
        <mxCell id="hbzrtGQ2m-DsfqGgio28-18" value="&lt;u&gt;Código&lt;/u&gt;" style="ellipse;whiteSpace=wrap;html=1;" vertex="1" parent="1">
          <mxGeometry x="710" y="620" width="80" height="30" as="geometry" />
        </mxCell>
        <mxCell id="hbzrtGQ2m-DsfqGgio28-19" value="Nombre" style="ellipse;whiteSpace=wrap;html=1;" vertex="1" parent="1">
          <mxGeometry x="710" y="670" width="80" height="30" as="geometry" />
        </mxCell>
        <mxCell id="hbzrtGQ2m-DsfqGgio28-20" value="&lt;u&gt;Matricula&lt;/u&gt;" style="ellipse;whiteSpace=wrap;html=1;" vertex="1" parent="1">
          <mxGeometry x="705" y="110" width="70" height="30" as="geometry" />
        </mxCell>
        <mxCell id="hbzrtGQ2m-DsfqGgio28-21" value="Modelo" style="ellipse;whiteSpace=wrap;html=1;" vertex="1" parent="1">
          <mxGeometry x="705" y="150" width="70" height="30" as="geometry" />
        </mxCell>
        <mxCell id="hbzrtGQ2m-DsfqGgio28-22" value="Tipo" style="ellipse;whiteSpace=wrap;html=1;" vertex="1" parent="1">
          <mxGeometry x="705" y="190" width="70" height="30" as="geometry" />
        </mxCell>
        <mxCell id="hbzrtGQ2m-DsfqGgio28-23" value="Potencia" style="ellipse;whiteSpace=wrap;html=1;" vertex="1" parent="1">
          <mxGeometry x="590" y="60" width="70" height="30" as="geometry" />
        </mxCell>
        <mxCell id="hbzrtGQ2m-DsfqGgio28-25" value="" style="endArrow=none;html=1;rounded=0;exitX=1;exitY=0.5;exitDx=0;exitDy=0;entryX=0;entryY=0.5;entryDx=0;entryDy=0;" edge="1" parent="1" source="hbzrtGQ2m-DsfqGgio28-7">
          <mxGeometry width="50" height="50" relative="1" as="geometry">
            <mxPoint x="410" y="360" as="sourcePoint" />
            <mxPoint x="160" y="160" as="targetPoint" />
          </mxGeometry>
        </mxCell>
        <mxCell id="hbzrtGQ2m-DsfqGgio28-26" value="" style="endArrow=none;html=1;rounded=0;exitX=1;exitY=0.5;exitDx=0;exitDy=0;" edge="1" parent="1" source="hbzrtGQ2m-DsfqGgio28-8">
          <mxGeometry width="50" height="50" relative="1" as="geometry">
            <mxPoint x="120" y="125" as="sourcePoint" />
            <mxPoint x="160" y="160" as="targetPoint" />
          </mxGeometry>
        </mxCell>
        <mxCell id="hbzrtGQ2m-DsfqGgio28-27" value="" style="endArrow=none;html=1;rounded=0;exitX=1;exitY=0.5;exitDx=0;exitDy=0;" edge="1" parent="1" source="hbzrtGQ2m-DsfqGgio28-9">
          <mxGeometry width="50" height="50" relative="1" as="geometry">
            <mxPoint x="120" y="165" as="sourcePoint" />
            <mxPoint x="160" y="160" as="targetPoint" />
          </mxGeometry>
        </mxCell>
        <mxCell id="hbzrtGQ2m-DsfqGgio28-29" value="" style="endArrow=none;html=1;rounded=0;exitX=1;exitY=0.5;exitDx=0;exitDy=0;" edge="1" parent="1" source="hbzrtGQ2m-DsfqGgio28-10">
          <mxGeometry width="50" height="50" relative="1" as="geometry">
            <mxPoint x="120" y="205" as="sourcePoint" />
            <mxPoint x="158" y="160" as="targetPoint" />
          </mxGeometry>
        </mxCell>
        <mxCell id="hbzrtGQ2m-DsfqGgio28-30" value="" style="endArrow=none;html=1;rounded=0;entryX=0;entryY=0.5;entryDx=0;entryDy=0;exitX=1;exitY=0.5;exitDx=0;exitDy=0;" edge="1" parent="1" target="hbzrtGQ2m-DsfqGgio28-20">
          <mxGeometry width="50" height="50" relative="1" as="geometry">
            <mxPoint x="650" y="160" as="sourcePoint" />
            <mxPoint x="550" y="310" as="targetPoint" />
          </mxGeometry>
        </mxCell>
        <mxCell id="hbzrtGQ2m-DsfqGgio28-32" value="" style="endArrow=none;html=1;rounded=0;entryX=0;entryY=0.5;entryDx=0;entryDy=0;" edge="1" parent="1" target="hbzrtGQ2m-DsfqGgio28-21">
          <mxGeometry width="50" height="50" relative="1" as="geometry">
            <mxPoint x="650" y="160" as="sourcePoint" />
            <mxPoint x="715" y="135" as="targetPoint" />
          </mxGeometry>
        </mxCell>
        <mxCell id="hbzrtGQ2m-DsfqGgio28-34" value="" style="endArrow=none;html=1;rounded=0;entryX=0;entryY=0.5;entryDx=0;entryDy=0;exitX=1;exitY=0.5;exitDx=0;exitDy=0;" edge="1" parent="1" target="hbzrtGQ2m-DsfqGgio28-22">
          <mxGeometry width="50" height="50" relative="1" as="geometry">
            <mxPoint x="650" y="160" as="sourcePoint" />
            <mxPoint x="715" y="175" as="targetPoint" />
          </mxGeometry>
        </mxCell>
        <mxCell id="hbzrtGQ2m-DsfqGgio28-35" value="" style="endArrow=none;html=1;rounded=0;entryX=0.4;entryY=1.033;entryDx=0;entryDy=0;exitX=0.5;exitY=0;exitDx=0;exitDy=0;entryPerimeter=0;" edge="1" parent="1" source="hbzrtGQ2m-DsfqGgio28-62" target="hbzrtGQ2m-DsfqGgio28-23">
          <mxGeometry width="50" height="50" relative="1" as="geometry">
            <mxPoint x="610" y="120" as="sourcePoint" />
            <mxPoint x="715" y="135" as="targetPoint" />
          </mxGeometry>
        </mxCell>
        <mxCell id="hbzrtGQ2m-DsfqGgio28-36" value="" style="endArrow=none;html=1;rounded=0;exitX=1;exitY=0.5;exitDx=0;exitDy=0;entryX=0;entryY=0.5;entryDx=0;entryDy=0;" edge="1" parent="1" target="hbzrtGQ2m-DsfqGgio28-12">
          <mxGeometry width="50" height="50" relative="1" as="geometry">
            <mxPoint x="650" y="360" as="sourcePoint" />
            <mxPoint x="550" y="310" as="targetPoint" />
          </mxGeometry>
        </mxCell>
        <mxCell id="hbzrtGQ2m-DsfqGgio28-37" value="" style="endArrow=none;html=1;rounded=0;exitX=1;exitY=0.5;exitDx=0;exitDy=0;entryX=0;entryY=0.5;entryDx=0;entryDy=0;" edge="1" parent="1" target="hbzrtGQ2m-DsfqGgio28-13">
          <mxGeometry width="50" height="50" relative="1" as="geometry">
            <mxPoint x="650" y="360" as="sourcePoint" />
            <mxPoint x="715" y="305" as="targetPoint" />
          </mxGeometry>
        </mxCell>
        <mxCell id="hbzrtGQ2m-DsfqGgio28-38" value="" style="endArrow=none;html=1;rounded=0;entryX=0;entryY=0.5;entryDx=0;entryDy=0;" edge="1" parent="1" target="hbzrtGQ2m-DsfqGgio28-14">
          <mxGeometry width="50" height="50" relative="1" as="geometry">
            <mxPoint x="650" y="360" as="sourcePoint" />
            <mxPoint x="700" y="400" as="targetPoint" />
          </mxGeometry>
        </mxCell>
        <mxCell id="hbzrtGQ2m-DsfqGgio28-39" value="" style="endArrow=none;html=1;rounded=0;entryX=0;entryY=0.5;entryDx=0;entryDy=0;" edge="1" parent="1" target="hbzrtGQ2m-DsfqGgio28-15">
          <mxGeometry width="50" height="50" relative="1" as="geometry">
            <mxPoint x="652" y="360" as="sourcePoint" />
            <mxPoint x="715" y="415" as="targetPoint" />
          </mxGeometry>
        </mxCell>
        <mxCell id="hbzrtGQ2m-DsfqGgio28-40" value="" style="endArrow=none;html=1;rounded=0;entryX=0;entryY=0.5;entryDx=0;entryDy=0;exitX=1;exitY=0.5;exitDx=0;exitDy=0;" edge="1" parent="1" target="hbzrtGQ2m-DsfqGgio28-18">
          <mxGeometry width="50" height="50" relative="1" as="geometry">
            <mxPoint x="650" y="655" as="sourcePoint" />
            <mxPoint x="710" y="515" as="targetPoint" />
          </mxGeometry>
        </mxCell>
        <mxCell id="hbzrtGQ2m-DsfqGgio28-41" value="" style="endArrow=none;html=1;rounded=0;entryX=0;entryY=0.5;entryDx=0;entryDy=0;exitX=1;exitY=0.5;exitDx=0;exitDy=0;" edge="1" parent="1" target="hbzrtGQ2m-DsfqGgio28-19">
          <mxGeometry width="50" height="50" relative="1" as="geometry">
            <mxPoint x="650" y="655" as="sourcePoint" />
            <mxPoint x="710" y="675" as="targetPoint" />
          </mxGeometry>
        </mxCell>
        <mxCell id="hbzrtGQ2m-DsfqGgio28-44" style="edgeStyle=orthogonalEdgeStyle;rounded=0;orthogonalLoop=1;jettySize=auto;html=1;entryX=0;entryY=0.5;entryDx=0;entryDy=0;endArrow=none;endFill=0;" edge="1" parent="1" source="hbzrtGQ2m-DsfqGgio28-42">
          <mxGeometry relative="1" as="geometry">
            <mxPoint x="570" y="360" as="targetPoint" />
          </mxGeometry>
        </mxCell>
        <mxCell id="hbzrtGQ2m-DsfqGgio28-46" value="1..1" style="edgeLabel;html=1;align=center;verticalAlign=middle;resizable=0;points=[];" vertex="1" connectable="0" parent="hbzrtGQ2m-DsfqGgio28-44">
          <mxGeometry x="0.5083" y="4" relative="1" as="geometry">
            <mxPoint as="offset" />
          </mxGeometry>
        </mxCell>
        <mxCell id="hbzrtGQ2m-DsfqGgio28-42" value="distribuye" style="rhombus;whiteSpace=wrap;html=1;" vertex="1" parent="1">
          <mxGeometry x="250" y="320" width="80" height="80" as="geometry" />
        </mxCell>
        <mxCell id="hbzrtGQ2m-DsfqGgio28-49" style="edgeStyle=orthogonalEdgeStyle;rounded=0;orthogonalLoop=1;jettySize=auto;html=1;endArrow=none;endFill=0;entryX=0.5;entryY=0;entryDx=0;entryDy=0;" edge="1" parent="1" source="hbzrtGQ2m-DsfqGgio28-47" target="hbzrtGQ2m-DsfqGgio28-66">
          <mxGeometry relative="1" as="geometry">
            <mxPoint x="615" y="620" as="targetPoint" />
          </mxGeometry>
        </mxCell>
        <mxCell id="hbzrtGQ2m-DsfqGgio28-51" value="1..N" style="edgeLabel;html=1;align=center;verticalAlign=middle;resizable=0;points=[];" vertex="1" connectable="0" parent="hbzrtGQ2m-DsfqGgio28-49">
          <mxGeometry x="0.1667" y="-1" relative="1" as="geometry">
            <mxPoint as="offset" />
          </mxGeometry>
        </mxCell>
        <mxCell id="hbzrtGQ2m-DsfqGgio28-47" value="llega" style="rhombus;whiteSpace=wrap;html=1;" vertex="1" parent="1">
          <mxGeometry x="570" y="480" width="80" height="80" as="geometry" />
        </mxCell>
        <mxCell id="hbzrtGQ2m-DsfqGgio28-54" style="edgeStyle=orthogonalEdgeStyle;rounded=0;orthogonalLoop=1;jettySize=auto;html=1;endArrow=none;endFill=0;shape=link;" edge="1" parent="1" source="hbzrtGQ2m-DsfqGgio28-52">
          <mxGeometry relative="1" as="geometry">
            <mxPoint x="570" y="160" as="targetPoint" />
          </mxGeometry>
        </mxCell>
        <mxCell id="hbzrtGQ2m-DsfqGgio28-56" value="1..N" style="edgeLabel;html=1;align=center;verticalAlign=middle;resizable=0;points=[];" vertex="1" connectable="0" parent="hbzrtGQ2m-DsfqGgio28-54">
          <mxGeometry x="0.425" y="2" relative="1" as="geometry">
            <mxPoint as="offset" />
          </mxGeometry>
        </mxCell>
        <mxCell id="hbzrtGQ2m-DsfqGgio28-52" value="conduce fecha diferente" style="rhombus;whiteSpace=wrap;html=1;fillStyle=auto;rounded=0;perimeterSpacing=0;gradientColor=none;linecap=round;" vertex="1" parent="1">
          <mxGeometry x="399" y="115" width="109" height="90" as="geometry" />
        </mxCell>
        <mxCell id="hbzrtGQ2m-DsfqGgio28-61" value="&#xa;&lt;span style=&quot;color: rgb(0, 0, 0); font-family: Helvetica; font-size: 12px; font-style: normal; font-variant-ligatures: normal; font-variant-caps: normal; font-weight: 400; letter-spacing: normal; orphans: 2; text-align: center; text-indent: 0px; text-transform: none; widows: 2; word-spacing: 0px; -webkit-text-stroke-width: 0px; white-space: normal; background-color: rgb(251, 251, 251); text-decoration-thickness: initial; text-decoration-style: initial; text-decoration-color: initial; display: inline !important; float: none;&quot;&gt;Camionero&lt;/span&gt;&#xa;&#xa;" style="rounded=0;whiteSpace=wrap;html=1;" vertex="1" parent="1">
          <mxGeometry x="160" y="140" width="80" height="40" as="geometry" />
        </mxCell>
        <mxCell id="hbzrtGQ2m-DsfqGgio28-62" value="Camión" style="rounded=0;whiteSpace=wrap;html=1;" vertex="1" parent="1">
          <mxGeometry x="570" y="140" width="80" height="40" as="geometry" />
        </mxCell>
        <mxCell id="hbzrtGQ2m-DsfqGgio28-64" value="Paquete" style="rounded=0;whiteSpace=wrap;html=1;" vertex="1" parent="1">
          <mxGeometry x="570" y="340" width="80" height="40" as="geometry" />
        </mxCell>
        <mxCell id="hbzrtGQ2m-DsfqGgio28-66" value="Provincia" style="rounded=0;whiteSpace=wrap;html=1;" vertex="1" parent="1">
          <mxGeometry x="570" y="640" width="80" height="40" as="geometry" />
        </mxCell>
        <mxCell id="hbzrtGQ2m-DsfqGgio28-67" value="" style="endArrow=none;html=1;rounded=0;exitX=0.5;exitY=0;exitDx=0;exitDy=0;" edge="1" parent="1" source="hbzrtGQ2m-DsfqGgio28-42" target="hbzrtGQ2m-DsfqGgio28-61">
          <mxGeometry width="50" height="50" relative="1" as="geometry">
            <mxPoint x="400" y="470" as="sourcePoint" />
            <mxPoint x="450" y="420" as="targetPoint" />
          </mxGeometry>
        </mxCell>
        <mxCell id="hbzrtGQ2m-DsfqGgio28-68" value="1..N" style="edgeLabel;html=1;align=center;verticalAlign=middle;resizable=0;points=[];" vertex="1" connectable="0" parent="hbzrtGQ2m-DsfqGgio28-67">
          <mxGeometry x="-0.6432" relative="1" as="geometry">
            <mxPoint as="offset" />
          </mxGeometry>
        </mxCell>
      </root>
    </mxGraphModel>
  </diagram>
</mxfile>
